<svg height="511pt" viewBox="-58 0 511 511.99778" width="511pt" xmlns="http://www.w3.org/2000/svg"><path d="m108.109375 317.492188s-15.121094 88.117187-55.175781 143.453124c-4.691406 6.480469.023437 15.550782 8.023437 15.550782h30.714844c2.953125 0 5.75 1.324218 7.621094 3.613281l23.132812 28.269531c4.484375 5.480469 13.105469 4.59375 16.363281-1.695312 15.757813-30.390625 60.675782-109.695313 49.378907-189.191406zm0 0" fill="#ff7a7a"/><path d="m138.796875 506.691406c-3.261719 6.273438-11.886719 7.160156-16.363281 1.6875l-7.253906-8.875c.152343-.25.292968-.5.433593-.765625 15.226563-29.375 57.707031-104.460937 50.3125-181.242187h22.246094c11.292969 79.496094-33.617187 158.792968-49.375 189.195312zm0 0" fill="#ff5757"/><path d="m287.261719 317.492188s15.121093 88.117187 55.175781 143.453124c4.691406 6.480469-.023438 15.550782-8.023438 15.550782h-30.714843c-2.953125 0-5.75 1.324218-7.621094 3.613281l-23.132813 28.269531c-4.484374 5.480469-13.105468 4.59375-16.363281-1.695312-15.757812-30.390625-60.675781-109.695313-49.378906-189.191406zm0 0" fill="#ea4444"/><path d="m334.414062 476.492188h-11.355468c-.328125-1.09375-.839844-2.167969-1.574219-3.183594-43.511719-60.105469-59.9375-155.8125-59.9375-155.8125h25.710937s15.128907 88.109375 55.175782 143.441406c4.695312 6.492188-.015625 15.554688-8.019532 15.554688zm0 0" fill="#d93131"/><path d="m394.871094 188.539062c0 19.851563-28.878906 34.890626-34.691406 52.800782-6.027344 18.5625 8.285156 47.667968-2.960938 63.117187-11.355469 15.605469-43.535156 10.929688-59.140625 22.285157-15.449219 11.246093-20.882813 43.355468-39.445313 49.382812-17.910156 5.8125-41.097656-16.777344-60.945312-16.777344-19.851562 0-43.039062 22.59375-60.949219 16.777344-18.5625-6.027344-23.996093-38.136719-39.445312-49.382812-15.605469-11.355469-47.785157-6.679688-59.140625-22.285157-11.246094-15.449219 3.070312-44.554687-2.957032-63.117187-5.816406-17.910156-34.695312-32.949219-34.695312-52.800782 0-19.847656 28.878906-34.890624 34.695312-52.800781 6.027344-18.558593-8.289062-47.664062 2.957032-63.117187 11.359375-15.601563 43.535156-10.925782 59.140625-22.285156 15.449219-11.242188 20.882812-43.351563 39.445312-49.378907 17.910157-5.816406 41.097657 16.777344 60.945313 16.777344 19.851562 0 43.039062-22.59375 60.949218-16.777344 18.5625 6.027344 23.996094 38.136719 39.445313 49.382813 15.605469 11.355468 47.785156 6.679687 59.140625 22.285156 11.246094 15.449219-3.066406 44.554688 2.960938 63.113281 5.8125 17.910157 34.691406 32.953125 34.691406 52.800781zm0 0" fill="#ffe1a8"/><path d="m357.222656 304.457031c-11.359375 15.605469-43.535156 10.933594-59.140625 22.289063-15.453125 11.242187-20.890625 43.351562-39.449219 49.375-7.882812 2.5625-16.785156-.382813-25.980468-4.480469 18.550781-6.152344 24.015625-38.296875 39.515625-49.570313 15.675781-11.414062 47.996093-6.710937 59.414062-22.394531 11.296875-15.519531-3.082031-44.761719 2.972657-63.40625 5.84375-17.992187 34.851562-33.097656 34.851562-53.039062 0-19.941407-29.007812-35.054688-34.851562-53.046875-6.054688-18.648438 8.324218-47.878906-2.972657-63.410156-3.0625-4.199219-7.621093-6.933594-12.949219-8.914063 14.78125 3.023437 31.152344 4.550781 38.589844 14.769531 11.238282 15.449219-3.074218 44.546875 2.953125 63.109375 5.8125 17.914063 34.699219 32.949219 34.699219 52.804688 0 19.84375-28.886719 34.890625-34.699219 52.796875-6.023437 18.558594 8.285157 47.667968-2.953125 63.117187zm0 0" fill="#ffd98f"/><path d="m324.152344 188.539062c0 69.847657-56.621094 126.46875-126.464844 126.46875-69.847656 0-126.46875-56.621093-126.46875-126.46875 0-69.84375 56.621094-126.464843 126.46875-126.464843 69.84375 0 126.464844 56.621093 126.464844 126.464843zm0 0" fill="#ffb541"/><path d="m324.15625 188.542969c0 69.839843-56.621094 126.460937-126.46875 126.460937-27.425781 0-52.816406-8.730468-73.539062-23.566406 16.65625 8.085938 35.371093 12.625 55.140624 12.625 69.851563 0 126.46875-56.621094 126.46875-126.472656 0-42.402344-20.867187-79.941406-52.910156-102.875 42.210938 20.480468 71.308594 63.753906 71.308594 113.828125zm0 0" fill="#ffa812"/><path d="m208.25 132.242188 11.113281 22.515624c1.714844 3.476563 5.03125 5.886719 8.867188 6.445313l24.847656 3.609375c9.664063 1.40625 13.523437 13.277344 6.53125 20.09375l-17.980469 17.527344c-2.777344 2.707031-4.042968 6.605468-3.390625 10.425781l4.246094 24.746094c1.652344 9.625-8.449219 16.964843-17.09375 12.421875l-22.222656-11.683594c-3.433594-1.804688-7.53125-1.804688-10.964844 0l-22.222656 11.683594c-8.644531 4.542968-18.746094-2.796875-17.09375-12.421875l4.242187-24.746094c.65625-3.820313-.609375-7.71875-3.386718-10.425781l-17.980469-17.527344c-6.992188-6.8125-3.132813-18.6875 6.527343-20.09375l24.847657-3.609375c3.839843-.558594 7.15625-2.96875 8.871093-6.445313l11.113282-22.515624c4.320312-8.757813 16.808594-8.757813 21.128906 0zm0 0" fill="#fff5f5"/><path d="m241.625 202.429688c-2.769531 2.710937-4.039062 6.605468-3.386719 10.429687l4.246094 24.75c1.648437 9.617187-8.453125 16.964844-17.085937 12.417969l-.230469-.121094c2.394531-3.011719 3.628906-7.007812 2.875-11.398438l-5.222657-30.429687c-.804687-4.699219.75-9.503906 4.171876-12.832031l22.105468-21.546875c2.617188-2.546875 4-5.667969 4.320313-8.832031 9.417969 1.628906 13.097656 13.304687 6.191406 20.042968zm0 0" fill="#efe2dd"/></svg>